<?xml version="1.0" encoding="utf-8"?>
<!-- Generator: Adobe Illustrator 16.0.0, SVG Export Plug-In . SVG Version: 6.00 Build 0)  -->
<!DOCTYPE svg PUBLIC "-//W3C//DTD SVG 1.1//EN" "http://www.w3.org/Graphics/SVG/1.1/DTD/svg11.dtd">
<svg version="1.1" id="图层_1" xmlns="http://www.w3.org/2000/svg" xmlns:xlink="http://www.w3.org/1999/xlink" x="0px" y="0px"
	 width="32px" height="32px" viewBox="0 0 32 32" enable-background="new 0 0 32 32" xml:space="preserve">
<symbol  id="icon-refresh" viewBox="-13 -13 26 26">
	<g id="刷新1_2_">
		<path fill="#0071BC" d="M13,3c0,5.523-4.477,10-10,10h-6c-5.523,0-10-4.477-10-10v-6c0-5.523,4.477-10,10-10h6
			c5.523,0,10,4.477,10,10V3z M-3.848-3.209l-0.887-1.392c-1.327,1.188-2.167,2.916-2.167,4.846c0,3.495,2.67,6.338,6.1,6.474
			l0.003,1.568l3.567-2.329L-1,3.623v1.461c-2-0.136-4.379-2.247-4.379-4.839C-5.379-1.106-4.731-2.328-3.848-3.209z M0.889-6.229
			L0.886-7.797l-3.61,2.328L1-3.134v-1.461c2,0.137,4.422,2.248,4.422,4.84c0,1.352-0.576,2.573-1.461,3.453l0.875,1.393
			c1.325-1.188,2.157-2.916,2.157-4.846C6.993-3.25,4.32-6.093,0.889-6.229z"/>
		<path fill="#FFFFFF" d="M-1,5.084V3.623l3.769,2.335l-3.616,2.329l0.021-1.568C-4.257,6.583-6.913,3.74-6.913,0.245
			c0-1.93,0.846-3.657,2.172-4.846l0.891,1.392C-4.734-2.328-5.38-1.106-5.38,0.245C-5.38,2.837-3,4.948-1,5.084z"/>
		<path fill="#FFFFFF" d="M4.822,5.091L3.934,3.698c0.886-0.88,1.488-2.102,1.488-3.453C5.422-2.347,3-4.458,1-4.595v1.461
			l-3.725-2.335l3.637-2.328l-0.01,1.567C4.334-6.093,6.993-3.25,6.993,0.245C6.993,2.175,6.148,3.902,4.822,5.091z"/>
	</g>
</symbol>
<use xlink:href="#icon-refresh"  width="26" height="26" x="-13" y="-13" transform="matrix(0.9986 0 0 -0.9986 16.0557 16.3765)" overflow="visible"/>
</svg>
