<?xml version="1.0" encoding="utf-8"?>
<!-- Generator: Adobe Illustrator 16.0.0, SVG Export Plug-In . SVG Version: 6.00 Build 0)  -->
<!DOCTYPE svg PUBLIC "-//W3C//DTD SVG 1.1//EN" "http://www.w3.org/Graphics/SVG/1.1/DTD/svg11.dtd">
<svg version="1.1" id="图层_1" xmlns="http://www.w3.org/2000/svg" xmlns:xlink="http://www.w3.org/1999/xlink" x="0px" y="0px"
	 width="32px" height="32px" viewBox="0 0 32 32" enable-background="new 0 0 32 32" xml:space="preserve">
<symbol  id="icon-nav" viewBox="-13.46 -5.079 24.42 17.992">
	<path fill-rule="evenodd" clip-rule="evenodd" fill="#FFFFFF" d="M-12.961,12.913h0.992c0.275,0,0.499-0.222,0.499-0.496v-0.972
		c0-0.273-0.224-0.495-0.499-0.495h-0.992c-0.276,0-0.499,0.222-0.499,0.495v0.972C-13.46,12.691-13.237,12.913-12.961,12.913z"/>
	<path fill-rule="evenodd" clip-rule="evenodd" fill="#FFFFFF" d="M-6.982,12.913h17.444c0.273,0,0.498-0.222,0.498-0.496v-0.972
		c0-0.273-0.225-0.495-0.498-0.495H-6.982c-0.275,0-0.499,0.222-0.499,0.495v0.972C-7.481,12.691-7.257,12.913-6.982,12.913z"/>
	<path fill-rule="evenodd" clip-rule="evenodd" fill="#FFFFFF" d="M-12.961,4.898h0.992c0.275,0,0.499-0.222,0.499-0.495V3.431
		c0-0.273-0.224-0.495-0.499-0.495h-0.992c-0.276,0-0.499,0.222-0.499,0.495v0.972C-13.46,4.676-13.237,4.898-12.961,4.898z"/>
	<path fill-rule="evenodd" clip-rule="evenodd" fill="#FFFFFF" d="M-6.982,4.898h17.444c0.273,0,0.498-0.222,0.498-0.495V3.431
		c0-0.273-0.225-0.495-0.498-0.495H-6.982c-0.275,0-0.499,0.222-0.499,0.495v0.972C-7.481,4.676-7.257,4.898-6.982,4.898z"/>
	<path fill-rule="evenodd" clip-rule="evenodd" fill="#FFFFFF" d="M-12.961-3.116h0.992c0.275,0,0.499-0.223,0.499-0.496v-0.972
		c0-0.273-0.224-0.495-0.499-0.495h-0.992c-0.276,0-0.499,0.222-0.499,0.495v0.972C-13.46-3.339-13.237-3.116-12.961-3.116z"/>
	<path fill-rule="evenodd" clip-rule="evenodd" fill="#FFFFFF" d="M-6.982-3.116h17.444c0.273,0,0.498-0.223,0.498-0.496v-0.972
		c0-0.273-0.225-0.495-0.498-0.495H-6.982c-0.275,0-0.499,0.222-0.499,0.495v0.972C-7.481-3.339-7.257-3.116-6.982-3.116z"/>
</symbol>
<use xlink:href="#icon-nav"  width="24.42" height="17.992" id="XMLID_32_" x="-13.46" y="-5.079" transform="matrix(0.9986 0 0 -0.9986 16.8442 19.8984)" overflow="visible"/>
</svg>
