<?xml version="1.0" encoding="utf-8"?>
<!-- Generator: Adobe Illustrator 16.0.0, SVG Export Plug-In . SVG Version: 6.00 Build 0)  -->
<!DOCTYPE svg PUBLIC "-//W3C//DTD SVG 1.1//EN" "http://www.w3.org/Graphics/SVG/1.1/DTD/svg11.dtd">
<svg version="1.1" id="图层_1" xmlns="http://www.w3.org/2000/svg" xmlns:xlink="http://www.w3.org/1999/xlink" x="0px" y="0px"
	 width="158px" height="145px" viewBox="0 0 158 145" enable-background="new 0 0 158 145" xml:space="preserve">
<g>
	<g>
		<path fill="#008BD5" d="M143.309,80.959c-4.002,37.773-37.879,65.143-75.638,61.139c-37.75-4.002-65.13-37.885-61.122-75.657
			C10.563,28.666,44.418,1.3,82.18,5.302C119.941,9.305,147.311,43.184,143.309,80.959z"/>
		
			<radialGradient id="SVGID_1_" cx="65.9722" cy="158.8193" r="82.5912" gradientTransform="matrix(0.9642 0.1023 -0.0963 0.9077 20.9154 -84.6951)" gradientUnits="userSpaceOnUse">
			<stop  offset="0.022" style="stop-color:#00B3EC"/>
			<stop  offset="0.3786" style="stop-color:#00A8E6"/>
			<stop  offset="1" style="stop-color:#008BD5"/>
		</radialGradient>
		<path fill="url(#SVGID_1_)" d="M141.746,77.621c-3.652,34.475-36.311,59.279-72.918,55.385
			c-36.609-3.885-63.336-34.973-59.67-69.459c3.65-34.474,36.295-59.282,72.916-55.383C118.682,12.042,145.406,43.15,141.746,77.621
			z"/>
		<defs>
			<filter id="Adobe_OpacityMaskFilter" filterUnits="userSpaceOnUse" x="25.198" y="8.919" width="99.521" height="63.844">
				<feColorMatrix  type="matrix" values="1 0 0 0 0  0 1 0 0 0  0 0 1 0 0  0 0 0 1 0"/>
			</filter>
		</defs>
		<mask maskUnits="userSpaceOnUse" x="25.198" y="8.919" width="99.521" height="63.844" id="SVGID_2_">
			<g filter="url(#Adobe_OpacityMaskFilter)">
				
					<linearGradient id="SVGID_3_" gradientUnits="userSpaceOnUse" x1="88.2754" y1="69.2798" x2="133.8631" y2="133.6722" gradientTransform="matrix(1 -0.0029 0.0029 1 -39.4984 -64.6508)">
					<stop  offset="0" style="stop-color:#FFFFFF"/>
					<stop  offset="0.0738" style="stop-color:#E9E9E9"/>
					<stop  offset="0.5099" style="stop-color:#6D6D6D"/>
					<stop  offset="0.8087" style="stop-color:#1F1F1F"/>
					<stop  offset="0.9451" style="stop-color:#000000"/>
				</linearGradient>
				<path fill="url(#SVGID_3_)" d="M124.719,40.694c0.051,17.639-22.189,32.001-49.667,32.07
					c-27.484,0.068-49.809-14.149-49.854-31.775C25.146,23.364,47.384,9.008,74.872,8.92
					C102.336,8.849,124.668,23.069,124.719,40.694z"/>
			</g>
		</mask>
		<path mask="url(#SVGID_2_)" fill="#FFFFFF" d="M124.719,40.694c0.051,17.639-22.189,32.001-49.667,32.07
			c-27.484,0.068-49.809-14.149-49.854-31.775C25.146,23.364,47.384,9.008,74.872,8.92C102.336,8.849,124.668,23.069,124.719,40.694
			z"/>
	</g>
	<path fill="#008BD5" d="M156.074,56.191h-9.85c-0.377-1.954-0.881-3.971-1.578-6.015c-0.631-1.503-2.961-9.629-10.768-20.117
		c-3.918-5.182-9.268-10.864-16.381-15.891c-7.074-5.026-15.936-9.378-26.146-11.702c-10.17-2.336-21.636-2.602-33.116,0.072
		c-11.457,2.646-22.83,8.331-32.232,16.825C16.588,27.807,9.162,39.03,5.244,51.588C1.275,64.125,0.861,77.855,4.032,90.672
		c3.156,12.836,9.963,24.633,19.118,33.66c9.127,9.082,20.523,15.396,32.28,18.41c11.772,3.051,23.788,2.877,34.486,0.281
		c10.75-2.596,20.143-7.6,27.574-13.596c7.451-6.021,12.98-12.977,16.816-19.664c3.861-6.697,6.078-13.111,7.361-18.469
		c1.348-5.881,1.75-10.441,1.861-13.381l4.984-8.63L156.074,56.191z M141.252,91.188c-2.709,10.469-9.73,25.512-24.727,37.008
		c-7.412,5.686-16.674,10.314-27.123,12.561c-10.406,2.256-21.976,2.119-33.139-1.074c-11.155-3.152-21.813-9.434-30.208-18.209
		c-8.431-8.73-14.506-19.945-17.146-31.945c-2.658-11.986-1.94-24.696,1.983-36.089c3.879-11.426,10.91-21.486,19.632-28.929
		c8.712-7.493,19.066-12.337,29.373-14.456c10.316-2.142,20.553-1.647,29.482,0.636c8.977,2.272,16.674,6.292,22.783,10.847
		c6.133,4.552,10.684,9.632,13.996,14.22c6.6,9.292,8.451,16.339,9.002,17.643c0.326,0.943,0.639,1.875,0.934,2.793h-10.262
		l7.561,13.093l7.559,13.093l2.471-4.275C143.23,81.035,142.703,85.498,141.252,91.188z"/>
	<path fill="#FFFFFF" d="M135.162,53.398c-0.551-1.304-2.402-8.351-9.002-17.643c-3.313-4.588-7.863-9.668-13.996-14.22
		c-6.109-4.554-13.807-8.574-22.783-10.847c-5.027-1.287-10.468-2.004-16.112-2.004c-4.373,0-8.869,0.433-13.371,1.368
		c-10.307,2.119-20.661,6.963-29.373,14.456c-8.722,7.442-15.753,17.503-19.632,28.929C6.97,64.832,6.252,77.541,8.91,89.527
		c2.639,12,8.715,23.215,17.146,31.945c8.395,8.775,19.053,15.057,30.208,18.209c6.206,1.773,12.54,2.605,18.733,2.605
		c4.938,0,9.783-0.527,14.406-1.531c10.449-2.246,19.711-6.875,27.123-12.561c14.996-11.496,22.018-26.539,24.727-37.008
		c1.451-5.689,1.979-10.152,2.172-13.086l-2.471,4.275l-7.559-13.093l-7.561-13.093h10.262
		C135.801,55.273,135.488,54.341,135.162,53.398z M125.834,53.477h-4.701l2.35,4.073l7.563,13.092l7.563,13.09l1.098,1.912
		c-0.299,1.594-0.662,3.223-1.084,4.869c-1.674,6.492-7.354,22.961-23.746,35.527c-7.66,5.871-16.666,10.041-26.045,12.061
		c-4.504,0.977-9.153,1.473-13.833,1.473c-6.132,0-12.185-0.844-17.988-2.5c-10.853-3.072-21.149-9.279-28.99-17.479
		c-8.122-8.412-13.962-19.293-16.457-30.648C9.03,77.521,9.703,65.228,13.461,54.321c3.597-10.605,10.279-20.455,18.823-27.745
		C40.359,19.63,50.089,14.839,60.44,12.71c4.198-0.872,8.513-1.311,12.829-1.311c5.269,0,10.458,0.643,15.442,1.919
		c7.82,1.977,15.363,5.57,21.828,10.392c5.129,3.807,9.646,8.395,13.422,13.634c5.387,7.585,7.498,13.699,8.295,15.999
		c0.016,0.046,0.029,0.089,0.045,0.133H125.834z"/>
	<g>
		<path fill="#008BD5" d="M91.971,118.854c0,1.885-2.268,3.412-5.059,3.412H55.456c-2.794,0-5.061-1.527-5.061-3.412l0,0
			c0-1.893,2.267-3.428,5.061-3.428h31.456C89.703,115.426,91.971,116.961,91.971,118.854L91.971,118.854z"/>
		<path fill="#008BD5" d="M86.912,125.982H55.456c-2.794,0-5.061,1.529-5.061,3.426c0,1.883,2.267,3.416,5.061,3.416h6.833
			c0.105,1.127,0.999,2.002,2.082,2.002h13.634c1.081,0,1.973-0.875,2.073-2.002h6.834c2.791,0,5.059-1.533,5.059-3.416
			C91.971,127.512,89.703,125.982,86.912,125.982z"/>
		<path fill="#008BD5" d="M108.725,86.865c3.916,0.564,7.99,0.867,12.061,0.855c1.543-4.617,2.502-9.424,2.783-14.281
			c-3.756-1.531-7.668-2.787-11.5-3.736c0.025-1.828-0.273-3.658-0.477-5.469c-0.367-1.797-0.648-3.604-1.246-5.342
			c3.379-2.098,6.723-4.493,9.779-7.096c-1.656-4.582-4.197-8.789-7.035-12.735c-3.904,1.276-7.652,2.771-11.184,4.496
			c-1.287-1.301-2.488-2.696-3.928-3.851c-1.371-1.194-2.818-2.335-4.383-3.294c1.264-3.82,2.252-7.744,2.928-11.703
			c-4.193-2.465-8.857-4.06-13.561-5.254c-2.174,3.483-4.067,7.032-5.674,10.652c-1.808-0.215-3.625-0.472-5.459-0.453
			c-1.831-0.035-3.66,0.039-5.48,0.273c-1.493-3.734-3.254-7.32-5.306-10.824c-4.771,0.875-9.393,2.524-13.72,4.709
			c0.564,4.068,1.343,7.926,2.471,11.8c-1.53,0.997-3.095,1.963-4.471,3.176c-1.49,1.089-2.74,2.425-4.055,3.714
			c-3.538-1.907-7.145-3.479-11.003-4.872c-3.079,3.767-5.596,7.958-7.475,12.423c3.046,2.755,6.131,5.204,9.464,7.449
			c-0.501,1.754-1.102,3.493-1.382,5.31c-0.418,1.796-0.541,3.619-0.711,5.44c-3.937,0.817-7.703,1.941-11.572,3.345
			c0.1,4.853,0.823,9.71,2.279,14.331c4.055,0.17,8.04,0.035,12.054-0.387c0.634,1.709,1.433,3.354,2.339,4.973
			c0.833,1.617,1.912,3.113,2.953,4.621c-2.438,3.115-4.69,6.447-6.742,10.006c3.271,3.588,6.868,6.965,11.001,9.5
			c3.182-2.434,6.18-5.154,8.965-8.064c1.591,0.926,3.262,1.66,4.979,2.322c1.677,0.732,5.225,1.645,5.225,1.645
			s8.497,2.391,17.497,0.27c0,0,3.54-0.883,5.288-1.396c1.709-0.682,3.453-1.262,5.061-2.148c2.637,2.926,5.57,5.803,8.686,8.4
			c4.158-2.529,7.967-5.629,11.328-9.164c-1.912-3.59-4.092-7.055-6.424-10.25c1.232-1.363,2.1-2.998,3.168-4.486
			C107.051,90.133,108.092,88.594,108.725,86.865z M71.085,107.318c-20.27,0-36.71-16.436-36.71-36.715
			c0-20.275,16.441-36.708,36.71-36.708c20.252,0,36.692,16.434,36.692,36.708C107.777,90.883,91.338,107.318,71.085,107.318z"/>
		<path fill="#008BD5" d="M79.859,109.395l-3.09-2.197c10.579-14.889,23.87-37.842,21.766-44.264
			c-1.697,0.669-5.605,6.866-8.555,14.651l-3.629-1.047c1.523-7.502,1.738-15.194,0.453-16.134
			c-1.682,0.703-3.939,10.659-4.625,20.896l-0.117,1.768H68.456l0.385-2.219c0.039-0.229,3.885-23.019-3.92-31.335
			c-2.099-2.237-4.853-3.16-8.417-2.818c-6.481,2.268-10.985,7.838-12.375,15.311c-1.43,7.714,0.716,15.727,5.222,19.532
			c2.058,1.379,4.009,1.445,5.666,0.963l-8.111-22.075l1.709-0.682c0.351-0.144,8.681-3.416,14.32-0.558
			c2.317,1.173,3.847,3.149,4.55,5.872c1.67,6.471-1.774,15.105-7.677,19.246c-0.022,0.021-0.049,0.035-0.074,0.053l8.7,23.678
			l-3.554,1.311l-8.555-23.285c-3.121,0.984-6.33,0.506-9.184-1.443l-0.139-0.107c-5.563-4.615-8.272-14.154-6.592-23.195
			c1.659-8.937,7.155-15.598,15.08-18.273l0.398-0.089c4.869-0.524,8.828,0.81,11.8,3.974c7.582,8.087,6.035,26.039,5.215,32.355
			h5.628c0.735-9.196,2.76-22.64,8.325-22.64c0.008,0,0.018,0,0.027,0c1.152,0.008,2.16,0.501,2.914,1.431
			c1.268,1.566,1.664,4.487,1.635,7.63c1.791-2.985,3.879-5.607,5.969-6.361c1.158-0.421,2.314-0.335,3.338,0.243l0.4,0.226
			l0.254,0.389C107.498,69.572,84.527,102.822,79.859,109.395z M51.765,62.677l6.604,17.965c4.129-3.41,6.645-10.007,5.45-14.64
			c-0.428-1.644-1.272-2.766-2.589-3.436C58.559,61.208,54.387,61.926,51.765,62.677z"/>
	</g>
	<g>
		<path fill="#FFFFFF" d="M94.809,117.432c0,1.885-2.268,3.414-5.061,3.414H58.294c-2.796,0-5.062-1.529-5.062-3.414l0,0
			c0-1.893,2.266-3.426,5.062-3.426h31.454C92.541,114.006,94.809,115.539,94.809,117.432L94.809,117.432z"/>
		<path fill="#FFFFFF" d="M89.748,124.564H58.294c-2.796,0-5.062,1.525-5.062,3.416c0,1.885,2.266,3.422,5.062,3.422h6.833
			c0.105,1.125,0.999,2.006,2.082,2.006h13.635c1.08,0,1.973-0.881,2.074-2.006h6.83c2.793,0,5.061-1.537,5.061-3.422
			C94.809,126.09,92.541,124.564,89.748,124.564z"/>
		<path fill="#FFFFFF" d="M111.563,85.445c3.914,0.564,7.99,0.865,12.063,0.854c1.541-4.613,2.498-9.422,2.781-14.281
			c-3.76-1.531-7.668-2.784-11.5-3.735c0.023-1.829-0.275-3.659-0.477-5.469c-0.367-1.796-0.65-3.606-1.246-5.341
			c3.381-2.1,6.723-4.495,9.777-7.1c-1.658-4.583-4.195-8.79-7.033-12.734c-3.904,1.277-7.65,2.771-11.186,4.499
			c-1.283-1.302-2.486-2.7-3.926-3.854c-1.373-1.193-2.818-2.336-4.383-3.294c1.264-3.816,2.252-7.741,2.928-11.699
			c-4.193-2.469-8.857-4.061-13.561-5.255c-2.174,3.484-4.066,7.031-5.674,10.65c-1.808-0.213-3.624-0.473-5.46-0.452
			c-1.83-0.035-3.66,0.037-5.479,0.274c-1.495-3.735-3.256-7.322-5.308-10.825c-4.77,0.874-9.391,2.523-13.72,4.708
			c0.563,4.067,1.344,7.924,2.472,11.8c-1.529,0.999-3.095,1.963-4.471,3.176c-1.491,1.089-2.74,2.428-4.054,3.717
			c-3.539-1.908-7.145-3.482-11.004-4.873c-3.079,3.765-5.596,7.956-7.475,12.422c3.046,2.755,6.132,5.204,9.464,7.448
			c-0.502,1.753-1.103,3.494-1.382,5.31c-0.418,1.799-0.542,3.62-0.71,5.439c-3.937,0.82-7.704,1.941-11.572,3.346
			c0.101,4.854,0.822,9.708,2.279,14.333c4.055,0.168,8.04,0.033,12.054-0.391c0.632,1.713,1.433,3.357,2.339,4.977
			c0.832,1.617,1.912,3.113,2.95,4.619c-2.436,3.113-4.688,6.445-6.74,10.008c3.272,3.588,6.868,6.961,11.001,9.504
			c3.183-2.438,6.18-5.158,8.966-8.066c1.591,0.92,3.261,1.656,4.979,2.318c1.676,0.732,5.225,1.643,5.225,1.643
			s8.496,2.396,17.498,0.273c0,0,3.539-0.889,5.285-1.393c1.711-0.686,3.455-1.268,5.063-2.154c2.635,2.932,5.568,5.805,8.682,8.402
			c4.162-2.525,7.971-5.631,11.332-9.164c-1.908-3.59-4.086-7.059-6.424-10.248c1.23-1.367,2.104-3.002,3.172-4.488
			C109.893,88.713,110.93,87.172,111.563,85.445z M73.922,105.898c-20.269,0-36.71-16.439-36.71-36.714
			c0-20.277,16.441-36.711,36.71-36.711c20.255,0,36.697,16.434,36.697,36.711C110.619,89.459,94.178,105.898,73.922,105.898z"/>
		<path fill="#FFFDFF" d="M82.695,107.969l-3.088-2.188c10.579-14.893,23.872-37.848,21.764-44.269
			c-1.697,0.669-5.604,6.865-8.557,14.652l-3.625-1.047c1.523-7.504,1.738-15.193,0.453-16.137
			c-1.684,0.707-3.939,10.66-4.625,20.898L84.9,81.645H71.293l0.386-2.217c0.04-0.229,3.885-23.018-3.92-31.335
			c-2.1-2.237-4.853-3.163-8.417-2.82c-6.481,2.269-10.983,7.838-12.375,15.312c-1.431,7.714,0.715,15.728,5.222,19.532
			c2.059,1.379,4.009,1.441,5.666,0.959l-8.112-22.07l1.709-0.684c0.352-0.142,8.682-3.412,14.321-0.557
			c2.316,1.174,3.846,3.146,4.55,5.871c1.67,6.472-1.774,15.107-7.678,19.246c-0.022,0.02-0.048,0.035-0.075,0.057l8.702,23.678
			l-3.555,1.307l-8.554-23.287c-3.122,0.988-6.331,0.512-9.185-1.441l-0.141-0.105c-5.561-4.617-8.27-14.156-6.591-23.195
			c1.66-8.938,7.156-15.599,15.081-18.274l0.398-0.089c4.869-0.524,8.828,0.811,11.8,3.976c7.582,8.085,6.036,26.036,5.216,32.352
			h5.628c0.734-9.194,2.758-22.641,8.322-22.641c0.01,0,0.02,0,0.029,0c1.152,0.01,2.16,0.505,2.914,1.434
			c1.268,1.566,1.66,4.486,1.637,7.631c1.789-2.985,3.877-5.607,5.967-6.363c1.158-0.42,2.314-0.334,3.34,0.245l0.398,0.226
			l0.25,0.386C110.338,68.148,87.363,101.4,82.695,107.969z M54.602,61.258l6.604,17.963c4.129-3.408,6.644-10.009,5.45-14.638
			c-0.427-1.645-1.272-2.769-2.59-3.437C61.396,59.786,57.224,60.505,54.602,61.258z"/>
	</g>
</g>
</svg>
