<?xml version="1.0" encoding="utf-8"?>
<!-- Generator: Adobe Illustrator 16.0.0, SVG Export Plug-In . SVG Version: 6.00 Build 0)  -->
<!DOCTYPE svg PUBLIC "-//W3C//DTD SVG 1.1//EN" "http://www.w3.org/Graphics/SVG/1.1/DTD/svg11.dtd">
<svg version="1.1" id="图层_1" xmlns="http://www.w3.org/2000/svg" xmlns:xlink="http://www.w3.org/1999/xlink" x="0px" y="0px"
	 width="22.25px" height="22.5px" viewBox="0 0 22.25 22.5" enable-background="new 0 0 22.25 22.5" xml:space="preserve">
<symbol  id="icon-password" viewBox="-5.5 -6.766 11 13.532">
	<path d="M4.5,0.933V2.33c0,2.446-2.019,4.437-4.5,4.437s-4.5-1.99-4.5-4.437V0.933h-1v-7.699h11v7.699H4.5z M0.697-4.766h-1.657
		l0.422,2.294c-0.248,0.144-0.422,0.399-0.422,0.706c0,0.458,0.371,0.828,0.828,0.828c0.458,0,0.829-0.37,0.829-0.828
		c0-0.307-0.174-0.563-0.422-0.706L0.697-4.766z M2.5,0.933h-5V2.33c0,1.321,1.145,2.437,2.5,2.437c1.354,0,2.5-1.116,2.5-2.437
		V0.933z"/>
</symbol>
<use xlink:href="#icon-password"  width="11" fill="#4b89dc" height="13.532" x="-5.5" y="-6.766" transform="matrix(1 0 0 -1 10.8203 11.3745)" overflow="visible"/>
</svg>
