<?xml version="1.0" encoding="utf-8"?>
<!-- Generator: Adobe Illustrator 16.0.0, SVG Export Plug-In . SVG Version: 6.00 Build 0)  -->
<!DOCTYPE svg PUBLIC "-//W3C//DTD SVG 1.1//EN" "http://www.w3.org/Graphics/SVG/1.1/DTD/svg11.dtd">
<svg version="1.1" id="图层_1" xmlns="http://www.w3.org/2000/svg" xmlns:xlink="http://www.w3.org/1999/xlink" x="0px" y="0px"
	 width="20.25px" height="22.5px" viewBox="0 0 20.25 22.5" enable-background="new 0 0 20.25 22.5" xml:space="preserve">
<symbol  id="icon-user_x5F_name" viewBox="-6.449 -6.763 12.898 13.526">
	<path fill-rule="evenodd" clip-rule="evenodd" d="M-0.541,6.736c0,0-0.484,0.026,0.995,0.026C2.713,6.763,2.98,4.2,2.98,4.2
		s0.027-2.695,0.027-3.329c0-0.634-1.077-1.059-0.887-0.872c0.027,0.027,0-1.69,0-1.69l4.328-3.383v-1.689H-6.422l-0.027,1.664
		l4.296,3.434V0c0,0-0.86,0.08-0.86,0.872s0,3.329,0,3.329S-2.691,6.736-0.541,6.736z"/>
</symbol>
<use xlink:href="#icon-user_x5F_name" fill="#4b89dc"  width="12.898" height="13.526" x="-6.449" y="-6.763" transform="matrix(1 0 0 -1 9.5166 11.6133)" overflow="visible"/>
</svg>
